<svg xmlns="http://www.w3.org/2000/svg" viewBox="0 0 100 100">
  <!-- Veyr mark: a flower of nine molecular bonds. Dark rounded tile. -->
  <rect width="100" height="100" rx="23" fill="#0A0F1E"/>
  <g fill="none" stroke="#E8E9EE" stroke-width="1.7" stroke-linejoin="round">
  <g transform="translate(50.000,31.000) rotate(-60.000) scale(0.6)"><path d="M 7.458,4.877 A 16.133,16.133 0 0 0 -7.458,4.877 A 5.500,5.500 0 1 1 -7.458,-4.877 A 16.133,16.133 0 0 0 7.458,-4.877 A 5.500,5.500 0 1 1 7.458,4.877 Z"/></g>
  <g transform="translate(62.213,35.445) rotate(-20.000) scale(0.6)"><path d="M 7.458,4.877 A 16.133,16.133 0 0 0 -7.458,4.877 A 5.500,5.500 0 1 1 -7.458,-4.877 A 16.133,16.133 0 0 0 7.458,-4.877 A 5.500,5.500 0 1 1 7.458,4.877 Z"/></g>
  <g transform="translate(68.711,46.701) rotate(20.000) scale(0.6)"><path d="M 7.458,4.877 A 16.133,16.133 0 0 0 -7.458,4.877 A 5.500,5.500 0 1 1 -7.458,-4.877 A 16.133,16.133 0 0 0 7.458,-4.877 A 5.500,5.500 0 1 1 7.458,4.877 Z"/></g>
  <g transform="translate(66.454,59.500) rotate(60.000) scale(0.6)"><path d="M 7.458,4.877 A 16.133,16.133 0 0 0 -7.458,4.877 A 5.500,5.500 0 1 1 -7.458,-4.877 A 16.133,16.133 0 0 0 7.458,-4.877 A 5.500,5.500 0 1 1 7.458,4.877 Z"/></g>
  <g transform="translate(56.498,67.854) rotate(100.000) scale(0.6)"><path d="M 7.458,4.877 A 16.133,16.133 0 0 0 -7.458,4.877 A 5.500,5.500 0 1 1 -7.458,-4.877 A 16.133,16.133 0 0 0 7.458,-4.877 A 5.500,5.500 0 1 1 7.458,4.877 Z"/></g>
  <g transform="translate(43.502,67.854) rotate(140.000) scale(0.6)"><path d="M 7.458,4.877 A 16.133,16.133 0 0 0 -7.458,4.877 A 5.500,5.500 0 1 1 -7.458,-4.877 A 16.133,16.133 0 0 0 7.458,-4.877 A 5.500,5.500 0 1 1 7.458,4.877 Z"/></g>
  <g transform="translate(33.546,59.500) rotate(180.000) scale(0.6)"><path d="M 7.458,4.877 A 16.133,16.133 0 0 0 -7.458,4.877 A 5.500,5.500 0 1 1 -7.458,-4.877 A 16.133,16.133 0 0 0 7.458,-4.877 A 5.500,5.500 0 1 1 7.458,4.877 Z"/></g>
  <g transform="translate(31.289,46.701) rotate(220.000) scale(0.6)"><path d="M 7.458,4.877 A 16.133,16.133 0 0 0 -7.458,4.877 A 5.500,5.500 0 1 1 -7.458,-4.877 A 16.133,16.133 0 0 0 7.458,-4.877 A 5.500,5.500 0 1 1 7.458,4.877 Z"/></g>
  <g transform="translate(37.787,35.445) rotate(260.000) scale(0.6)"><path d="M 7.458,4.877 A 16.133,16.133 0 0 0 -7.458,4.877 A 5.500,5.500 0 1 1 -7.458,-4.877 A 16.133,16.133 0 0 0 7.458,-4.877 A 5.500,5.500 0 1 1 7.458,4.877 Z"/></g>
  </g>
</svg>
