<svg xmlns="http://www.w3.org/2000/svg" viewBox="0 0 100 100">
  <!-- Veyr mark: dark rounded tile, ring of 12 ball-and-stick bonds -->
  <rect width="100" height="100" rx="23" fill="#0A0F1E"/>
    <circle cx="50.000" cy="34.000" r="2.6" fill="none" stroke="#E8E9EE" stroke-width="1.7"/>
    <circle cx="50.000" cy="19.000" r="4.6" fill="none" stroke="#E8E9EE" stroke-width="1.7"/>
    <line x1="52.577" y1="34.347" x2="54.559" y2="19.613" stroke="#E8E9EE" stroke-width="1.7"/>
    <line x1="47.423" y1="34.347" x2="45.441" y2="19.613" stroke="#E8E9EE" stroke-width="1.7"/>
    <circle cx="58.000" cy="36.144" r="2.6" fill="none" stroke="#E8E9EE" stroke-width="1.7"/>
    <circle cx="65.500" cy="23.153" r="4.6" fill="none" stroke="#E8E9EE" stroke-width="1.7"/>
    <line x1="60.058" y1="37.732" x2="69.141" y2="25.964" stroke="#E8E9EE" stroke-width="1.7"/>
    <line x1="55.595" y1="35.155" x2="61.245" y2="21.405" stroke="#E8E9EE" stroke-width="1.7"/>
    <circle cx="63.856" cy="42.000" r="2.6" fill="none" stroke="#E8E9EE" stroke-width="1.7"/>
    <circle cx="76.847" cy="34.500" r="4.6" fill="none" stroke="#E8E9EE" stroke-width="1.7"/>
    <line x1="64.845" y1="44.405" x2="78.595" y2="38.755" stroke="#E8E9EE" stroke-width="1.7"/>
    <line x1="62.268" y1="39.942" x2="74.036" y2="30.859" stroke="#E8E9EE" stroke-width="1.7"/>
    <circle cx="66.000" cy="50.000" r="2.6" fill="none" stroke="#E8E9EE" stroke-width="1.7"/>
    <circle cx="81.000" cy="50.000" r="4.6" fill="none" stroke="#E8E9EE" stroke-width="1.7"/>
    <line x1="65.653" y1="52.577" x2="80.387" y2="54.559" stroke="#E8E9EE" stroke-width="1.7"/>
    <line x1="65.653" y1="47.423" x2="80.387" y2="45.441" stroke="#E8E9EE" stroke-width="1.7"/>
    <circle cx="63.856" cy="58.000" r="2.6" fill="none" stroke="#E8E9EE" stroke-width="1.7"/>
    <circle cx="76.847" cy="65.500" r="4.6" fill="none" stroke="#E8E9EE" stroke-width="1.7"/>
    <line x1="62.268" y1="60.058" x2="74.036" y2="69.141" stroke="#E8E9EE" stroke-width="1.7"/>
    <line x1="64.845" y1="55.595" x2="78.595" y2="61.245" stroke="#E8E9EE" stroke-width="1.7"/>
    <circle cx="58.000" cy="63.856" r="2.6" fill="none" stroke="#E8E9EE" stroke-width="1.7"/>
    <circle cx="65.500" cy="76.847" r="4.6" fill="none" stroke="#E8E9EE" stroke-width="1.7"/>
    <line x1="55.595" y1="64.845" x2="61.245" y2="78.595" stroke="#E8E9EE" stroke-width="1.7"/>
    <line x1="60.058" y1="62.268" x2="69.141" y2="74.036" stroke="#E8E9EE" stroke-width="1.7"/>
    <circle cx="50.000" cy="66.000" r="2.6" fill="none" stroke="#E8E9EE" stroke-width="1.7"/>
    <circle cx="50.000" cy="81.000" r="4.6" fill="none" stroke="#E8E9EE" stroke-width="1.7"/>
    <line x1="47.423" y1="65.653" x2="45.441" y2="80.387" stroke="#E8E9EE" stroke-width="1.7"/>
    <line x1="52.577" y1="65.653" x2="54.559" y2="80.387" stroke="#E8E9EE" stroke-width="1.7"/>
    <circle cx="42.000" cy="63.856" r="2.6" fill="none" stroke="#E8E9EE" stroke-width="1.7"/>
    <circle cx="34.500" cy="76.847" r="4.6" fill="none" stroke="#E8E9EE" stroke-width="1.7"/>
    <line x1="39.942" y1="62.268" x2="30.859" y2="74.036" stroke="#E8E9EE" stroke-width="1.7"/>
    <line x1="44.405" y1="64.845" x2="38.755" y2="78.595" stroke="#E8E9EE" stroke-width="1.7"/>
    <circle cx="36.144" cy="58.000" r="2.6" fill="none" stroke="#E8E9EE" stroke-width="1.7"/>
    <circle cx="23.153" cy="65.500" r="4.6" fill="none" stroke="#E8E9EE" stroke-width="1.7"/>
    <line x1="35.155" y1="55.595" x2="21.405" y2="61.245" stroke="#E8E9EE" stroke-width="1.7"/>
    <line x1="37.732" y1="60.058" x2="25.964" y2="69.141" stroke="#E8E9EE" stroke-width="1.7"/>
    <circle cx="34.000" cy="50.000" r="2.6" fill="none" stroke="#E8E9EE" stroke-width="1.7"/>
    <circle cx="19.000" cy="50.000" r="4.6" fill="none" stroke="#E8E9EE" stroke-width="1.7"/>
    <line x1="34.347" y1="47.423" x2="19.613" y2="45.441" stroke="#E8E9EE" stroke-width="1.7"/>
    <line x1="34.347" y1="52.577" x2="19.613" y2="54.559" stroke="#E8E9EE" stroke-width="1.7"/>
    <circle cx="36.144" cy="42.000" r="2.6" fill="none" stroke="#E8E9EE" stroke-width="1.7"/>
    <circle cx="23.153" cy="34.500" r="4.6" fill="none" stroke="#E8E9EE" stroke-width="1.7"/>
    <line x1="37.732" y1="39.942" x2="25.964" y2="30.859" stroke="#E8E9EE" stroke-width="1.7"/>
    <line x1="35.155" y1="44.405" x2="21.405" y2="38.755" stroke="#E8E9EE" stroke-width="1.7"/>
    <circle cx="42.000" cy="36.144" r="2.6" fill="none" stroke="#E8E9EE" stroke-width="1.7"/>
    <circle cx="34.500" cy="23.153" r="4.6" fill="none" stroke="#E8E9EE" stroke-width="1.7"/>
    <line x1="44.405" y1="35.155" x2="38.755" y2="21.405" stroke="#E8E9EE" stroke-width="1.7"/>
    <line x1="39.942" y1="37.732" x2="30.859" y2="25.964" stroke="#E8E9EE" stroke-width="1.7"/>
</svg>
